<?xml version="1.0"?>
<svg xmlns="http://www.w3.org/2000/svg" viewBox="40 0 580 460" preserveAspectRatio="xMidYMid meet">
  
  <g class="character"><path d="M 125.0 169.0 L 125.0 167.0 L 123.0 165.0 L 121.0 165.0 L 119.0 163.0 L 116.0 161.0 L 111.0 160.0 L 106.0 158.0 L 101.0 157.0 L 98.0 156.0 L 96.0 156.0 L 92.0 156.0 L 89.0 157.0 L 86.0 158.0 L 82.0 158.0 L 78.0 159.0 L 74.0 159.0 L 71.0 160.0 L 68.0 161.0 L 65.0 162.0 L 62.0 164.0 L 59.0 166.0 L 55.0 168.0 L 51.0 171.0 L 49.0 173.0 L 47.0 174.0 L 45.0 176.0 L 43.0 178.0 L 41.0 180.0 L 40.0 182.0 L 38.0 184.0 L 37.0 186.0 L 36.0 188.0 L 33.0 191.0 L 32.0 193.0 L 32.0 195.0 L 31.0 197.0 L 30.0 200.0 L 29.0 202.0 L 29.0 204.0 L 28.0 206.0 L 28.0 208.0 L 28.0 212.0 L 28.0 215.0 L 27.0 219.0 L 27.0 222.0 L 27.0 225.0 L 27.0 228.0 L 27.0 232.0 L 27.0 237.0 L 27.0 243.0 L 26.0 249.0 L 26.0 254.0 L 26.0 259.0 L 25.0 264.0 L 25.0 268.0 L 25.0 273.0 L 25.0 278.0 L 27.0 284.0 L 30.0 291.0 L 34.0 300.0 L 36.0 307.0 L 38.0 315.0 L 42.0 322.0 L 46.0 329.0 L 52.0 335.0 L 58.0 340.0 L 62.0 344.0 L 68.0 347.0 L 75.0 350.0 L 83.0 353.0 L 93.0 355.0 L 104.0 358.0 L 114.0 360.0 L 125.0 363.0 L 141.0 366.0 L 159.0 368.0 L 176.0 369.0 L 188.0 370.0 L 196.0 371.0 L 205.0 372.0 L 215.0 372.0 L 225.0 371.0 L 236.0 370.0 L 247.0 369.0 L 257.0 369.0 L 268.0 368.0 L 282.0 368.0 L 296.0 366.0 L 307.0 365.0 L 317.0 363.0 L 325.0 361.0 L 332.0 358.0 L 340.0 354.0 L 347.0 349.0 L 354.0 343.0 L 360.0 339.0 L 364.0 335.0 L 368.0 331.0 L 373.0 327.0 L 376.0 323.0 L 381.0 319.0 L 385.0 315.0 L 389.0 311.0 L 393.0 307.0 L 396.0 303.0 L 399.0 299.0 L 402.0 294.0 L 405.0 289.0 L 407.0 285.0 L 409.0 281.0 L 411.0 277.0 L 412.0 273.0 L 413.0 268.0 L 414.0 262.0 L 414.0 257.0 L 414.0 252.0 L 414.0 247.0 L 413.0 242.0 L 411.0 235.0 L 409.0 229.0 L 407.0 224.0 L 404.0 218.0 L 402.0 213.0 L 400.0 207.0 L 397.0 201.0 L 394.0 195.0 L 389.0 188.0 L 385.0 181.0 L 380.0 174.0 L 375.0 168.0 L 370.0 161.0 L 365.0 155.0 L 360.0 150.0 L 354.0 145.0 L 347.0 141.0 L 340.0 138.0 L 333.0 136.0 L 329.0 134.0 L 325.0 133.0 L 322.0 132.0 L 319.0 131.0 L 315.0 130.0 L 310.0 128.0 L 304.0 127.0 L 297.0 126.0 L 291.0 124.0 L 284.0 122.0 L 278.0 121.0 L 272.0 121.0 L 265.0 120.0 L 259.0 120.0 L 252.0 119.0 L 245.0 119.0 L 237.0 120.0 L 227.0 121.0 L 218.0 121.0 L 211.0 121.0 L 206.0 121.0 L 201.0 121.0 L 198.0 121.0 L 195.0 121.0 L 193.0 121.0 L 190.0 122.0 L 187.0 124.0 L 182.0 126.0 L 177.0 128.0 L 174.0 130.0 L 171.0 132.0 L 169.0 134.0 L 167.0 134.0 L 166.0 136.0 L 165.0 138.0 L 162.0 140.0 L 156.0 143.0 L 150.0 145.0 L 143.0 148.0 L 139.0 150.0 L 137.0 152.0 L 135.0 153.0 L 133.0 155.0 L 131.0 156.0 L 130.0 158.0 L 128.0 159.0 L 126.0 161.0 L 125.0 163.0 L 123.0 166.0 L 121.0 168.0 L 119.0 170.0 L 120.0 169.0"></path><path d="M 124.0 258.0 L 122.0 257.0 L 120.0 256.0 L 118.0 256.0 L 116.0 256.0 L 114.0 255.0 L 112.0 255.0 L 110.0 254.0 L 107.0 252.0 L 105.0 252.0 L 102.0 251.0 L 100.0 251.0 L 97.0 251.0 L 95.0 251.0 L 92.0 252.0 L 90.0 253.0 L 88.0 255.0 L 87.0 257.0 L 86.0 259.0 L 85.0 262.0 L 85.0 264.0 L 84.0 267.0 L 84.0 269.0 L 84.0 271.0 L 84.0 273.0 L 84.0 275.0 L 84.0 277.0 L 84.0 279.0 L 84.0 281.0 L 84.0 283.0 L 85.0 285.0 L 86.0 288.0 L 87.0 290.0 L 88.0 292.0 L 90.0 294.0 L 94.0 296.0 L 100.0 299.0 L 105.0 300.0 L 111.0 301.0 L 116.0 303.0 L 121.0 304.0 L 126.0 304.0 L 129.0 304.0 L 132.0 302.0 L 135.0 300.0 L 139.0 299.0 L 143.0 297.0 L 147.0 295.0 L 151.0 292.0 L 154.0 289.0 L 156.0 286.0 L 158.0 282.0 L 160.0 278.0 L 160.0 275.0 L 160.0 272.0 L 160.0 268.0 L 159.0 264.0 L 159.0 261.0 L 158.0 259.0 L 157.0 257.0 L 155.0 254.0 L 153.0 253.0 L 152.0 251.0 L 150.0 249.0 L 148.0 249.0 L 145.0 247.0 L 142.0 246.0 L 140.0 245.0 L 137.0 244.0 L 134.0 242.0 L 130.0 241.0 L 127.0 241.0 L 125.0 241.0 L 122.0 241.0 L 120.0 242.0 L 119.0 244.0 L 117.0 247.0 L 116.0 249.0 L 115.0 251.0 L 114.0 253.0 L 113.0 255.0 L 113.0 257.0 L 113.0 258.0"></path><path d="M 235.0 202.0 L 233.0 203.0 L 231.0 205.0 L 230.0 207.0 L 229.0 210.0 L 228.0 213.0 L 227.0 216.0 L 227.0 218.0 L 226.0 222.0 L 226.0 225.0 L 225.0 228.0 L 225.0 231.0 L 225.0 234.0 L 225.0 237.0 L 225.0 239.0 L 225.0 242.0 L 225.0 245.0 L 225.0 247.0 L 225.0 250.0 L 226.0 252.0 L 227.0 255.0 L 228.0 259.0 L 229.0 261.0 L 230.0 264.0 L 232.0 266.0 L 233.0 268.0 L 235.0 271.0 L 238.0 272.0 L 242.0 275.0 L 248.0 277.0 L 254.0 279.0 L 260.0 280.0 L 265.0 281.0 L 270.0 282.0 L 274.0 283.0 L 280.0 284.0 L 286.0 285.0 L 292.0 285.0 L 298.0 285.0 L 302.0 284.0 L 305.0 283.0 L 307.0 283.0 L 310.0 282.0 L 315.0 281.0 L 321.0 279.0 L 328.0 278.0 L 334.0 276.0 L 338.0 274.0 L 341.0 273.0 L 343.0 271.0 L 346.0 269.0 L 349.0 266.0 L 351.0 264.0 L 352.0 261.0 L 353.0 259.0 L 354.0 256.0 L 356.0 253.0 L 357.0 250.0 L 358.0 247.0 L 358.0 244.0 L 358.0 240.0 L 358.0 236.0 L 358.0 232.0 L 358.0 228.0 L 358.0 224.0 L 357.0 221.0 L 356.0 218.0 L 354.0 214.0 L 352.0 210.0 L 349.0 207.0 L 347.0 204.0 L 345.0 202.0 L 343.0 200.0 L 340.0 198.0 L 337.0 196.0 L 330.0 194.0 L 324.0 192.0 L 320.0 191.0 L 317.0 189.0 L 315.0 188.0 L 313.0 187.0 L 311.0 186.0 L 309.0 185.0 L 307.0 185.0 L 305.0 184.0 L 303.0 183.0 L 301.0 182.0 L 298.0 182.0 L 296.0 181.0 L 294.0 181.0 L 292.0 181.0 L 289.0 180.0 L 287.0 180.0 L 284.0 180.0 L 282.0 180.0 L 280.0 180.0 L 278.0 181.0 L 276.0 181.0 L 273.0 182.0 L 271.0 182.0 L 269.0 184.0 L 266.0 185.0 L 264.0 186.0 L 261.0 187.0 L 257.0 188.0 L 254.0 189.0 L 252.0 191.0 L 250.0 192.0 L 248.0 193.0 L 246.0 194.0 L 243.0 195.0 L 241.0 196.0 L 239.0 197.0 L 237.0 197.0 L 234.0 199.0 L 232.0 200.0 L 229.0 202.0 L 227.0 204.0 L 225.0 205.0 L 224.0 207.0 L 222.0 209.0"></path><path d="M 156.0 364.0 L 154.0 365.0 L 150.0 368.0 L 147.0 370.0 L 145.0 373.0 L 143.0 376.0 L 141.0 379.0 L 138.0 383.0 L 136.0 386.0 L 135.0 389.0 L 134.0 391.0 L 133.0 395.0 L 131.0 398.0 L 130.0 402.0 L 129.0 405.0 L 128.0 408.0 L 127.0 411.0 L 126.0 414.0 L 125.0 417.0 L 125.0 420.0 L 125.0 423.0 L 124.0 425.0 L 124.0 428.0 L 124.0 431.0 L 123.0 434.0 L 123.0 438.0 L 122.0 441.0 L 122.0 445.0 L 122.0 447.0 L 122.0 450.0 L 122.0 453.0 L 122.0 456.0 L 123.0 459.0 L 124.0 461.0 L 124.0 463.0 L 124.0 466.0 L 125.0 468.0 L 125.0 470.0 L 126.0 472.0 L 127.0 476.0 L 127.0 479.0 L 128.0 482.0 L 128.0 485.0 L 129.0 487.0 L 129.0 489.0 L 129.0 491.0 L 129.0 493.0 L 129.0 496.0 L 130.0 498.0 L 130.0 501.0 L 131.0 503.0 L 131.0 506.0 L 132.0 509.0 L 133.0 512.0 L 134.0 515.0 L 135.0 518.0 L 136.0 522.0 L 138.0 527.0 L 141.0 531.0 L 143.0 534.0 L 144.0 536.0 L 145.0 538.0 L 146.0 540.0 L 148.0 542.0 L 149.0 545.0 L 150.0 547.0 L 152.0 548.0 L 154.0 550.0 L 155.0 552.0 L 157.0 554.0 L 159.0 558.0 L 162.0 561.0 L 163.0 564.0 L 165.0 566.0 L 167.0 567.0 L 169.0 569.0 L 172.0 572.0 L 174.0 573.0 L 176.0 574.0 L 178.0 574.0 L 179.0 574.0"></path><path d="M 376.0 331.0 L 380.0 332.0 L 382.0 333.0 L 384.0 335.0 L 387.0 338.0 L 390.0 341.0 L 393.0 344.0 L 395.0 347.0 L 397.0 349.0 L 399.0 353.0 L 402.0 358.0 L 405.0 363.0 L 408.0 369.0 L 412.0 374.0 L 415.0 380.0 L 418.0 386.0 L 421.0 390.0 L 423.0 395.0 L 425.0 399.0 L 427.0 405.0 L 429.0 409.0 L 432.0 414.0 L 434.0 417.0 L 435.0 420.0 L 436.0 423.0 L 437.0 426.0 L 438.0 428.0 L 439.0 431.0 L 440.0 434.0 L 441.0 436.0 L 441.0 439.0 L 442.0 441.0 L 443.0 445.0 L 445.0 449.0 L 446.0 453.0 L 447.0 456.0 L 447.0 460.0 L 449.0 462.0 L 449.0 465.0 L 450.0 468.0 L 451.0 472.0 L 452.0 475.0 L 452.0 477.0 L 452.0 479.0 L 452.0 481.0 L 452.0 483.0 L 452.0 485.0 L 452.0 488.0 L 451.0 492.0 L 451.0 494.0 L 450.0 497.0 L 450.0 500.0 L 450.0 502.0 L 449.0 504.0 L 448.0 506.0 L 448.0 508.0 L 448.0 510.0 L 447.0 512.0 L 447.0 514.0 L 446.0 517.0 L 446.0 519.0 L 446.0 522.0 L 446.0 524.0 L 446.0 526.0 L 446.0 528.0 L 446.0 530.0 L 446.0 532.0 L 446.0 534.0 L 446.0 538.0 L 445.0 542.0 L 445.0 545.0 L 445.0 547.0 L 445.0 549.0 L 445.0 552.0 L 445.0 554.0 L 444.0 556.0 L 444.0 558.0 L 445.0 560.0 L 445.0 562.0 L 445.0 563.0"></path><path d="M 189.0 577.0 L 187.0 576.0 L 185.0 575.0 L 183.0 575.0 L 181.0 575.0 L 179.0 575.0 L 177.0 574.0 L 175.0 575.0 L 172.0 576.0 L 169.0 577.0 L 167.0 578.0 L 165.0 580.0 L 163.0 581.0 L 161.0 583.0 L 159.0 584.0 L 157.0 587.0 L 155.0 589.0 L 153.0 592.0 L 151.0 595.0 L 148.0 598.0 L 147.0 600.0 L 146.0 604.0 L 145.0 607.0 L 144.0 610.0 L 144.0 612.0 L 144.0 614.0 L 143.0 617.0 L 143.0 620.0 L 143.0 623.0 L 143.0 625.0 L 143.0 628.0 L 143.0 631.0 L 143.0 633.0 L 143.0 636.0 L 144.0 638.0 L 144.0 640.0 L 146.0 643.0 L 146.0 645.0 L 147.0 649.0 L 147.0 654.0 L 146.0 659.0 L 146.0 663.0 L 146.0 665.0 L 148.0 667.0 L 150.0 669.0 L 151.0 671.0 L 152.0 674.0 L 152.0 677.0 L 153.0 679.0 L 153.0 681.0 L 155.0 683.0 L 157.0 685.0 L 157.0 687.0 L 159.0 688.0 L 161.0 690.0 L 162.0 692.0 L 164.0 694.0 L 166.0 696.0 L 169.0 699.0 L 172.0 701.0 L 174.0 703.0 L 178.0 705.0 L 182.0 707.0 L 185.0 709.0 L 188.0 711.0 L 192.0 713.0 L 197.0 716.0 L 201.0 719.0 L 205.0 721.0 L 210.0 726.0 L 216.0 731.0 L 222.0 736.0 L 227.0 737.0 L 233.0 737.0 L 241.0 737.0 L 251.0 737.0 L 259.0 735.0 L 265.0 734.0 L 270.0 733.0 L 276.0 732.0 L 282.0 731.0 L 287.0 731.0 L 292.0 730.0 L 297.0 730.0 L 302.0 729.0 L 306.0 728.0 L 310.0 726.0 L 313.0 724.0 L 315.0 722.0 L 317.0 719.0 L 320.0 716.0 L 323.0 712.0 L 328.0 707.0 L 331.0 703.0 L 334.0 699.0 L 335.0 695.0 L 336.0 690.0 L 337.0 685.0 L 339.0 680.0 L 340.0 674.0 L 341.0 668.0 L 340.0 662.0 L 339.0 657.0 L 339.0 652.0 L 337.0 648.0 L 336.0 643.0 L 334.0 639.0 L 331.0 634.0 L 328.0 629.0 L 325.0 625.0 L 323.0 620.0 L 320.0 615.0 L 316.0 611.0 L 312.0 606.0 L 308.0 602.0 L 304.0 598.0 L 300.0 595.0 L 296.0 591.0 L 291.0 587.0 L 285.0 584.0 L 281.0 580.0 L 277.0 579.0 L 272.0 576.0 L 267.0 574.0 L 263.0 573.0 L 259.0 572.0 L 256.0 572.0 L 252.0 571.0 L 246.0 571.0 L 239.0 570.0 L 232.0 569.0 L 225.0 569.0 L 219.0 568.0 L 215.0 568.0 L 212.0 568.0 L 208.0 568.0 L 203.0 568.0 L 197.0 569.0 L 192.0 570.0 L 188.0 571.0 L 186.0 573.0 L 184.0 574.0 L 182.0 575.0 L 180.0 576.0 L 178.0 577.0 L 176.0 579.0 L 174.0 580.0"></path><path d="M 401.0 560.0 L 399.0 560.0 L 397.0 560.0 L 393.0 560.0 L 391.0 561.0 L 388.0 562.0 L 384.0 563.0 L 379.0 564.0 L 374.0 565.0 L 370.0 566.0 L 367.0 567.0 L 365.0 569.0 L 362.0 570.0 L 359.0 572.0 L 356.0 574.0 L 353.0 575.0 L 351.0 578.0 L 349.0 581.0 L 347.0 585.0 L 344.0 588.0 L 341.0 592.0 L 339.0 595.0 L 337.0 598.0 L 337.0 601.0 L 337.0 603.0 L 336.0 606.0 L 336.0 608.0 L 336.0 611.0 L 336.0 614.0 L 337.0 618.0 L 338.0 622.0 L 339.0 625.0 L 339.0 629.0 L 340.0 633.0 L 340.0 635.0 L 340.0 637.0 L 341.0 639.0 L 341.0 641.0 L 341.0 643.0 L 342.0 645.0 L 342.0 647.0 L 342.0 650.0 L 344.0 654.0 L 345.0 656.0 L 346.0 658.0 L 347.0 660.0 L 350.0 663.0 L 353.0 666.0 L 356.0 668.0 L 359.0 670.0 L 363.0 673.0 L 367.0 675.0 L 373.0 678.0 L 380.0 681.0 L 386.0 682.0 L 392.0 684.0 L 398.0 686.0 L 404.0 688.0 L 411.0 689.0 L 420.0 691.0 L 430.0 692.0 L 439.0 693.0 L 448.0 694.0 L 454.0 694.0 L 460.0 694.0 L 467.0 694.0 L 472.0 694.0 L 479.0 693.0 L 484.0 692.0 L 488.0 690.0 L 491.0 690.0 L 494.0 688.0 L 498.0 687.0 L 502.0 685.0 L 507.0 684.0 L 512.0 682.0 L 518.0 680.0 L 524.0 679.0 L 531.0 677.0 L 536.0 675.0 L 540.0 672.0 L 543.0 670.0 L 545.0 666.0 L 548.0 661.0 L 552.0 656.0 L 556.0 650.0 L 559.0 644.0 L 561.0 638.0 L 562.0 632.0 L 562.0 626.0 L 562.0 620.0 L 561.0 614.0 L 559.0 608.0 L 557.0 603.0 L 555.0 599.0 L 554.0 595.0 L 552.0 592.0 L 550.0 588.0 L 547.0 584.0 L 543.0 579.0 L 539.0 575.0 L 534.0 571.0 L 530.0 569.0 L 526.0 566.0 L 522.0 564.0 L 516.0 561.0 L 511.0 559.0 L 508.0 557.0 L 506.0 557.0 L 500.0 556.0 L 493.0 555.0 L 485.0 555.0 L 478.0 554.0 L 473.0 554.0 L 469.0 553.0 L 464.0 553.0 L 459.0 553.0 L 454.0 553.0 L 451.0 553.0 L 449.0 553.0 L 444.0 554.0 L 439.0 554.0 L 433.0 555.0 L 428.0 555.0 L 424.0 556.0 L 419.0 556.0 L 414.0 557.0 L 411.0 557.0 L 408.0 558.0 L 406.0 559.0 L 403.0 560.0 L 397.0 561.0 L 390.0 561.0 L 382.0 562.0 L 376.0 563.0 L 373.0 564.0 L 371.0 565.0 L 371.0 565.0"></path><path d="M 170.0 571.0 L 172.0 570.0 L 174.0 569.0 L 177.0 569.0 L 179.0 568.0 L 181.0 568.0 L 184.0 568.0 L 187.0 567.0 L 190.0 567.0 L 193.0 566.0 L 197.0 566.0 L 200.0 565.0 L 203.0 565.0 L 206.0 565.0 L 209.0 565.0 L 212.0 565.0 L 217.0 564.0 L 223.0 564.0 L 227.0 564.0 L 232.0 564.0 L 235.0 564.0 L 238.0 564.0 L 241.0 564.0 L 246.0 564.0 L 251.0 564.0 L 256.0 564.0 L 260.0 564.0 L 265.0 564.0 L 269.0 564.0 L 273.0 564.0 L 277.0 564.0 L 280.0 563.0 L 284.0 563.0 L 287.0 563.0 L 290.0 562.0 L 295.0 562.0 L 299.0 562.0 L 305.0 561.0 L 310.0 561.0 L 315.0 560.0 L 319.0 560.0 L 323.0 560.0 L 328.0 559.0 L 332.0 559.0 L 336.0 559.0 L 340.0 559.0 L 344.0 559.0 L 349.0 558.0 L 353.0 558.0 L 358.0 558.0 L 363.0 558.0 L 368.0 558.0 L 372.0 558.0 L 376.0 558.0 L 380.0 558.0 L 384.0 557.0 L 387.0 557.0 L 391.0 556.0 L 394.0 556.0 L 397.0 556.0 L 399.0 555.0 L 402.0 555.0 L 404.0 555.0 L 406.0 553.0 L 409.0 553.0 L 413.0 552.0 L 418.0 550.0 L 423.0 549.0 L 427.0 548.0 L 431.0 547.0 L 435.0 545.0 L 440.0 543.0 L 443.0 541.0 L 445.0 540.0 L 447.0 537.0 L 449.0 536.0 L 452.0 533.0 L 454.0 531.0 L 456.0 528.0 L 457.0 526.0 L 458.0 524.0 L 459.0 522.0 L 456.0 524.0 L 453.0 526.0 L 451.0 527.0 L 453.0 526.0 L 454.0 524.0 L 455.0 522.0 L 455.0 522.0"></path><path d="M 136.0 433.0 L 133.0 434.0 L 130.0 434.0 L 127.0 434.0 L 124.0 435.0 L 121.0 435.0 L 117.0 436.0 L 113.0 437.0 L 109.0 439.0 L 104.0 440.0 L 100.0 441.0 L 97.0 442.0 L 94.0 444.0 L 90.0 446.0 L 85.0 448.0 L 79.0 452.0 L 73.0 455.0 L 67.0 458.0 L 61.0 461.0 L 55.0 464.0 L 50.0 466.0 L 45.0 469.0 L 40.0 472.0 L 36.0 475.0 L 33.0 478.0 L 31.0 480.0 L 28.0 482.0 L 26.0 484.0 L 23.0 488.0 L 19.0 491.0 L 17.0 495.0 L 14.0 498.0 L 13.0 501.0 L 11.0 504.0 L 9.0 508.0 L 7.0 512.0 L 5.0 517.0 L 4.0 521.0 L 3.0 524.0 L 2.0 528.0 L 2.0 532.0 L 1.0 536.0 L 0.0 539.0 L 0.0 543.0 L 0.0 545.0 L 0.0 548.0 L 0.0 550.0 L 1.0 553.0 L 2.0 555.0 L 4.0 556.0 L 6.0 557.0 L 9.0 557.0 L 12.0 558.0 L 17.0 558.0 L 24.0 558.0 L 30.0 558.0 L 36.0 558.0 L 41.0 558.0 L 47.0 557.0 L 53.0 556.0 L 59.0 555.0 L 65.0 553.0 L 70.0 550.0 L 75.0 547.0 L 79.0 545.0 L 82.0 542.0 L 84.0 540.0 L 86.0 537.0 L 89.0 534.0 L 92.0 531.0 L 95.0 528.0 L 100.0 525.0 L 104.0 521.0 L 109.0 518.0 L 113.0 515.0 L 117.0 512.0 L 120.0 510.0 L 124.0 507.0 L 129.0 503.0 L 134.0 499.0 L 138.0 496.0 L 141.0 493.0 L 143.0 489.0 L 145.0 486.0 L 147.0 482.0 L 147.0 479.0 L 148.0 476.0 L 149.0 472.0 L 149.0 469.0 L 150.0 467.0 L 150.0 464.0 L 150.0 462.0 L 150.0 459.0 L 150.0 456.0 L 150.0 453.0 L 149.0 451.0 L 149.0 449.0 L 148.0 446.0 L 148.0 444.0 L 146.0 443.0 L 145.0 440.0 L 143.0 438.0 L 141.0 435.0 L 140.0 434.0"></path><path d="M 501.0 409.0 L 499.0 409.0 L 496.0 409.0 L 494.0 408.0 L 492.0 407.0 L 490.0 407.0 L 486.0 407.0 L 481.0 407.0 L 474.0 407.0 L 466.0 405.0 L 460.0 404.0 L 458.0 403.0 L 454.0 401.0 L 451.0 401.0 L 448.0 400.0 L 443.0 400.0 L 440.0 400.0 L 438.0 400.0 L 435.0 401.0 L 432.0 403.0 L 427.0 405.0 L 422.0 406.0 L 416.0 407.0 L 410.0 408.0 L 405.0 408.0 L 402.0 409.0 L 401.0 411.0 L 402.0 414.0 L 403.0 418.0 L 406.0 423.0 L 409.0 427.0 L 413.0 431.0 L 420.0 434.0 L 426.0 436.0 L 432.0 438.0 L 438.0 441.0 L 444.0 443.0 L 451.0 446.0 L 460.0 449.0 L 467.0 451.0 L 473.0 453.0 L 479.0 455.0 L 484.0 456.0 L 491.0 459.0 L 498.0 461.0 L 506.0 463.0 L 516.0 465.0 L 524.0 467.0 L 532.0 469.0 L 541.0 471.0 L 549.0 472.0 L 555.0 473.0 L 561.0 475.0 L 567.0 475.0 L 574.0 476.0 L 581.0 476.0 L 587.0 476.0 L 593.0 476.0 L 599.0 475.0 L 604.0 475.0 L 607.0 474.0 L 610.0 472.0 L 614.0 471.0 L 618.0 470.0 L 623.0 468.0 L 628.0 466.0 L 631.0 463.0 L 634.0 460.0 L 636.0 456.0 L 638.0 452.0 L 640.0 449.0 L 641.0 446.0 L 641.0 443.0 L 643.0 440.0 L 645.0 436.0 L 647.0 431.0 L 649.0 427.0 L 650.0 424.0 L 650.0 421.0 L 650.0 418.0 L 649.0 415.0 L 647.0 412.0 L 646.0 409.0 L 645.0 406.0 L 642.0 403.0 L 638.0 400.0 L 635.0 397.0 L 632.0 394.0 L 629.0 392.0 L 626.0 390.0 L 621.0 388.0 L 613.0 385.0 L 607.0 384.0 L 603.0 383.0 L 599.0 383.0 L 596.0 383.0 L 590.0 382.0 L 581.0 382.0 L 573.0 383.0 L 566.0 383.0 L 560.0 384.0 L 553.0 384.0 L 546.0 384.0 L 539.0 384.0 L 533.0 384.0 L 530.0 384.0 L 528.0 384.0 L 526.0 384.0 L 523.0 385.0 L 518.0 385.0 L 514.0 387.0 L 509.0 389.0 L 505.0 392.0 L 500.0 394.0 L 496.0 396.0 L 493.0 397.0 L 492.0 399.0 L 490.0 400.0 L 489.0 402.0 L 488.0 404.0 L 487.0 406.0 L 486.0 407.0"></path><path d="M 140.0 327.0 L 141.0 329.0 L 142.0 331.0 L 144.0 333.0 L 145.0 335.0 L 146.0 337.0 L 148.0 339.0 L 149.0 341.0 L 151.0 343.0 L 153.0 346.0 L 155.0 348.0 L 157.0 349.0 L 158.0 351.0 L 160.0 350.0 L 162.0 349.0 L 164.0 346.0 L 167.0 344.0 L 169.0 341.0 L 171.0 338.0 L 173.0 335.0 L 176.0 332.0 L 178.0 330.0 L 180.0 327.0 L 181.0 325.0 L 182.0 323.0 L 183.0 321.0 L 184.0 319.0 L 185.0 317.0 L 186.0 315.0 L 188.0 317.0 L 191.0 321.0 L 193.0 323.0 L 195.0 326.0 L 199.0 330.0 L 203.0 334.0 L 207.0 337.0 L 209.0 339.0 L 211.0 341.0 L 213.0 343.0 L 216.0 346.0 L 218.0 347.0 L 220.0 348.0 L 223.0 345.0 L 225.0 342.0 L 227.0 338.0 L 230.0 334.0 L 231.0 331.0 L 232.0 329.0 L 233.0 327.0 L 233.0 325.0 L 235.0 323.0 L 237.0 324.0 L 240.0 327.0 L 245.0 330.0 L 251.0 332.0 L 256.0 334.0 L 260.0 336.0 L 262.0 338.0 L 264.0 339.0 L 265.0 341.0 L 267.0 342.0 L 269.0 339.0 L 269.0 336.0 L 270.0 332.0 L 272.0 328.0 L 273.0 324.0 L 274.0 322.0 L 275.0 320.0 L 276.0 318.0 L 277.0 316.0 L 279.0 318.0 L 281.0 320.0 L 284.0 323.0 L 286.0 326.0 L 289.0 328.0 L 292.0 330.0 L 295.0 333.0 L 300.0 335.0 L 305.0 336.0 L 309.0 337.0 L 311.0 337.0 L 313.0 333.0 L 314.0 330.0 L 315.0 327.0 L 316.0 323.0 L 317.0 318.0 L 318.0 314.0 L 318.0 313.0"></path><path d="M 114.0 101.0 L 112.0 100.0 L 108.0 102.0 L 105.0 102.0 L 102.0 103.0 L 100.0 104.0 L 98.0 105.0 L 95.0 107.0 L 93.0 108.0 L 90.0 109.0 L 89.0 111.0 L 88.0 113.0 L 86.0 114.0 L 84.0 114.0 L 83.0 116.0 L 81.0 118.0 L 80.0 120.0 L 79.0 123.0 L 76.0 126.0 L 75.0 128.0 L 74.0 131.0 L 72.0 134.0 L 71.0 136.0 L 70.0 139.0 L 70.0 141.0 L 70.0 144.0 L 70.0 146.0 L 70.0 148.0 L 70.0 150.0 L 72.0 153.0 L 74.0 155.0 L 76.0 157.0 L 78.0 158.0 L 80.0 159.0 L 83.0 160.0 L 85.0 161.0 L 88.0 161.0 L 90.0 162.0 L 93.0 163.0 L 96.0 163.0 L 99.0 163.0 L 102.0 163.0 L 103.0 163.0"></path><path d="M 124.0 93.0 L 122.0 94.0 L 120.0 96.0 L 120.0 97.0"></path><path d="M 109.0 91.0 L 109.0 93.0 L 109.0 96.0 L 110.0 98.0 L 111.0 100.0 L 113.0 102.0 L 115.0 103.0 L 117.0 103.0 L 119.0 104.0 L 122.0 104.0 L 126.0 105.0 L 130.0 106.0 L 135.0 107.0 L 139.0 107.0 L 141.0 107.0 L 144.0 107.0 L 146.0 106.0 L 150.0 106.0 L 155.0 105.0 L 161.0 104.0 L 168.0 104.0 L 176.0 102.0 L 182.0 101.0 L 184.0 100.0 L 187.0 100.0 L 191.0 99.0 L 194.0 99.0 L 196.0 99.0 L 199.0 99.0 L 201.0 99.0 L 203.0 100.0 L 205.0 100.0 L 207.0 101.0 L 209.0 102.0 L 209.0 104.0 L 210.0 106.0 L 211.0 108.0 L 209.0 110.0 L 206.0 111.0 L 205.0 113.0 L 203.0 114.0 L 202.0 116.0 L 200.0 118.0 L 196.0 120.0 L 194.0 122.0 L 193.0 124.0 L 191.0 125.0 L 189.0 127.0 L 186.0 128.0 L 184.0 129.0 L 182.0 129.0"></path><path d="M 108.0 96.0 L 111.0 95.0 L 113.0 95.0 L 117.0 94.0 L 121.0 93.0 L 124.0 93.0 L 128.0 92.0 L 133.0 91.0 L 139.0 90.0 L 144.0 90.0 L 151.0 89.0 L 159.0 88.0 L 165.0 87.0 L 171.0 87.0 L 173.0 86.0 L 176.0 86.0 L 179.0 86.0 L 182.0 86.0 L 186.0 86.0 L 190.0 86.0 L 193.0 86.0 L 196.0 86.0 L 199.0 86.0 L 203.0 86.0 L 206.0 86.0 L 209.0 87.0 L 211.0 87.0 L 214.0 88.0 L 217.0 89.0 L 220.0 90.0 L 222.0 91.0 L 224.0 92.0 L 226.0 92.0 L 228.0 94.0 L 230.0 95.0 L 232.0 96.0 L 233.0 98.0 L 235.0 100.0 L 235.0 102.0 L 235.0 104.0 L 233.0 106.0 L 231.0 109.0 L 230.0 111.0 L 227.0 112.0 L 226.0 114.0 L 224.0 115.0 L 222.0 115.0 L 220.0 116.0 L 218.0 117.0 L 216.0 118.0 L 212.0 120.0 L 210.0 121.0 L 208.0 122.0 L 205.0 123.0 L 203.0 123.0 L 201.0 124.0 L 199.0 124.0 L 199.0 125.0"></path><path d="M 120.0 0.0 L 119.0 2.0 L 119.0 4.0 L 119.0 7.0 L 118.0 9.0 L 118.0 12.0 L 117.0 14.0 L 117.0 16.0 L 117.0 18.0 L 117.0 20.0 L 116.0 23.0 L 116.0 25.0 L 116.0 27.0 L 115.0 29.0 L 114.0 31.0 L 113.0 33.0 L 113.0 35.0 L 113.0 37.0 L 112.0 39.0 L 112.0 41.0 L 112.0 45.0 L 112.0 48.0 L 111.0 50.0 L 111.0 52.0 L 111.0 55.0 L 111.0 57.0 L 111.0 60.0 L 111.0 63.0 L 110.0 66.0 L 110.0 69.0 L 109.0 72.0 L 109.0 75.0 L 109.0 77.0 L 109.0 79.0 L 109.0 81.0 L 109.0 83.0 L 108.0 85.0 L 108.0 87.0 L 108.0 89.0 L 107.0 92.0 L 106.0 95.0 L 106.0 97.0 L 105.0 100.0 L 103.0 103.0 L 102.0 105.0 L 101.0 107.0 L 100.0 109.0 L 99.0 111.0 L 98.0 113.0 L 96.0 115.0 L 95.0 117.0 L 93.0 119.0 L 91.0 120.0 L 89.0 121.0 L 87.0 122.0 L 85.0 123.0 L 83.0 125.0 L 82.0 125.0"></path><path d="M 121.0 1.0 L 119.0 1.0 L 117.0 1.0 L 114.0 3.0 L 112.0 5.0 L 110.0 7.0 L 108.0 10.0 L 107.0 12.0 L 106.0 15.0 L 105.0 18.0 L 104.0 22.0 L 103.0 25.0 L 103.0 29.0 L 102.0 32.0 L 101.0 35.0 L 100.0 39.0 L 100.0 42.0 L 99.0 45.0 L 98.0 49.0 L 98.0 54.0 L 97.0 59.0 L 97.0 63.0 L 96.0 67.0 L 96.0 70.0 L 95.0 73.0 L 95.0 75.0 L 95.0 77.0 L 94.0 79.0 L 94.0 81.0 L 94.0 84.0 L 94.0 87.0 L 93.0 89.0 L 92.0 92.0 L 92.0 94.0 L 92.0 97.0 L 91.0 101.0 L 90.0 104.0 L 90.0 106.0 L 89.0 108.0 L 89.0 110.0 L 89.0 112.0 L 88.0 114.0 L 87.0 116.0 L 86.0 118.0 L 85.0 121.0 L 84.0 123.0 L 82.0 125.0 L 81.0 127.0 L 80.0 128.0"></path><path d="M 121.0 8.0 L 123.0 8.0 L 125.0 8.0 L 129.0 8.0 L 135.0 9.0 L 142.0 9.0 L 148.0 10.0 L 152.0 10.0 L 155.0 11.0 L 157.0 12.0 L 160.0 12.0 L 163.0 14.0 L 165.0 15.0 L 167.0 16.0 L 169.0 18.0 L 171.0 19.0 L 173.0 22.0 L 175.0 24.0 L 177.0 27.0 L 177.0 29.0 L 177.0 31.0 L 177.0 34.0 L 177.0 36.0 L 177.0 38.0 L 176.0 41.0 L 175.0 43.0 L 174.0 45.0 L 173.0 48.0 L 171.0 51.0 L 169.0 54.0 L 169.0 57.0 L 168.0 59.0 L 167.0 62.0 L 166.0 64.0 L 165.0 67.0 L 164.0 70.0 L 164.0 73.0 L 164.0 75.0 L 163.0 77.0 L 163.0 79.0 L 163.0 81.0 L 163.0 83.0 L 164.0 85.0 L 166.0 87.0 L 168.0 89.0 L 170.0 90.0 L 173.0 91.0 L 176.0 93.0 L 178.0 93.0"></path><path d="M 281.0 227.0 L 278.0 226.0 L 276.0 227.0 L 274.0 227.0 L 272.0 228.0 L 270.0 229.0 L 269.0 231.0 L 268.0 233.0 L 268.0 235.0 L 267.0 237.0 L 267.0 239.0 L 267.0 242.0 L 268.0 244.0 L 269.0 247.0 L 270.0 249.0 L 272.0 251.0 L 274.0 252.0 L 276.0 253.0 L 280.0 253.0 L 284.0 253.0 L 288.0 253.0 L 290.0 253.0 L 294.0 252.0 L 298.0 249.0 L 301.0 247.0 L 303.0 245.0 L 305.0 244.0 L 306.0 242.0 L 307.0 240.0 L 309.0 238.0 L 310.0 236.0 L 310.0 234.0 L 310.0 232.0 L 310.0 230.0 L 309.0 228.0 L 306.0 226.0 L 302.0 223.0 L 299.0 222.0 L 297.0 221.0 L 294.0 220.0 L 291.0 220.0 L 288.0 219.0 L 286.0 219.0 L 284.0 219.0 L 282.0 220.0 L 280.0 220.0 L 278.0 221.0 L 276.0 222.0 L 274.0 224.0 L 273.0 226.0 L 271.0 227.0 L 271.0 227.0"></path><path d="M 136.0 285.0 L 132.0 285.0 L 130.0 286.0 L 128.0 286.0 L 125.0 286.0 L 123.0 286.0 L 121.0 286.0 L 119.0 286.0 L 118.0 284.0 L 124.0 283.0 L 131.0 280.0 L 137.0 278.0 L 140.0 275.0 L 142.0 274.0 L 140.0 274.0 L 137.0 274.0 L 130.0 276.0 L 124.0 277.0 L 118.0 278.0 L 114.0 278.0 L 111.0 278.0 L 109.0 279.0 L 114.0 279.0 L 120.0 277.0 L 126.0 277.0 L 132.0 276.0 L 137.0 275.0 L 133.0 274.0 L 120.0 274.0 L 104.0 274.0 L 95.0 275.0 L 89.0 277.0 L 87.0 278.0 L 91.0 278.0 L 96.0 278.0 L 104.0 277.0 L 112.0 276.0 L 122.0 274.0 L 133.0 273.0 L 142.0 272.0 L 145.0 272.0 L 143.0 274.0 L 138.0 276.0 L 133.0 279.0 L 129.0 281.0 L 127.0 281.0 L 123.0 283.0 L 120.0 283.0 L 122.0 282.0 L 125.0 281.0 L 129.0 279.0 L 135.0 277.0 L 132.0 276.0 L 128.0 277.0 L 123.0 279.0 L 119.0 280.0 L 116.0 282.0 L 114.0 282.0 L 120.0 283.0 L 130.0 282.0 L 139.0 281.0 L 142.0 280.0 L 140.0 280.0 L 137.0 280.0 L 131.0 281.0 L 122.0 281.0 L 113.0 283.0 L 109.0 284.0 L 113.0 284.0 L 121.0 283.0 L 132.0 282.0 L 140.0 281.0 L 145.0 280.0 L 147.0 279.0 L 140.0 279.0 L 131.0 280.0 L 123.0 281.0 L 119.0 282.0 L 117.0 282.0 L 114.0 282.0 L 117.0 282.0 L 122.0 281.0 L 128.0 279.0 L 134.0 278.0 L 126.0 276.0 L 117.0 277.0 L 110.0 278.0 L 108.0 279.0 L 110.0 280.0 L 117.0 280.0 L 122.0 280.0 L 118.0 279.0 L 112.0 279.0 L 105.0 279.0 L 99.0 280.0 L 102.0 281.0 L 109.0 279.0 L 119.0 278.0 L 125.0 276.0 L 127.0 275.0 L 124.0 274.0 L 116.0 274.0 L 107.0 275.0 L 102.0 276.0 L 106.0 276.0 L 112.0 275.0 L 119.0 274.0 L 129.0 272.0 L 136.0 271.0 L 131.0 272.0 L 125.0 274.0 L 121.0 276.0 L 119.0 278.0 L 122.0 278.0 L 131.0 278.0 L 149.0 277.0 L 160.0 275.0 L 163.0 273.0 L 158.0 271.0 L 151.0 271.0 L 146.0 271.0 L 142.0 273.0 L 141.0 275.0 L 141.0 277.0 L 144.0 278.0 L 149.0 277.0 L 157.0 276.0 L 162.0 274.0 L 157.0 274.0 L 151.0 275.0 L 143.0 277.0 L 139.0 279.0 L 136.0 280.0 L 141.0 279.0 L 146.0 277.0 L 148.0 276.0 L 146.0 275.0 L 143.0 275.0 L 140.0 276.0 L 137.0 277.0 L 141.0 277.0 L 146.0 276.0 L 152.0 274.0 L 157.0 273.0 L 159.0 273.0 L 152.0 272.0 L 142.0 271.0 L 134.0 272.0 L 131.0 273.0 L 134.0 274.0 L 139.0 274.0 L 142.0 273.0 L 137.0 273.0 L 130.0 273.0 L 126.0 273.0 L 126.0 273.0"></path><path d="M 292.0 479.5 L 290.0 479.5 L 288.0 479.5 L 286.0 479.5 L 283.0 480.5 L 281.0 483.5 L 279.0 484.5 L 277.0 486.5 L 276.0 488.5 L 275.0 490.5 L 274.0 492.5 L 273.0 495.5 L 273.0 497.5 L 273.0 499.5 L 273.0 501.5 L 273.0 503.5 L 274.0 505.5 L 276.0 508.5 L 278.0 511.5 L 280.0 512.5 L 282.0 513.5 L 284.0 514.5 L 287.0 515.5 L 289.0 515.5 L 291.0 516.5 L 294.0 517.5 L 297.0 517.5 L 301.0 517.5 L 304.0 517.5 L 306.0 517.5 L 309.0 517.5 L 311.0 516.5 L 314.0 515.5 L 316.0 515.5 L 318.0 514.5 L 320.0 513.5 L 322.0 511.5 L 325.0 508.5 L 326.0 505.5 L 326.0 503.5 L 326.0 500.5 L 326.0 497.5 L 326.0 495.5 L 325.0 492.5 L 323.0 490.5 L 322.0 487.5 L 320.0 486.5 L 318.0 485.5 L 316.0 483.5 L 314.0 481.5 L 312.0 480.5 L 309.0 479.5 L 307.0 478.5 L 305.0 477.5 L 302.0 476.5 L 300.0 476.5 L 298.0 476.5 L 296.0 476.5 L 294.0 477.5 L 292.0 478.5 L 290.0 480.5 L 288.0 482.5 L 288.0 482.5"></path><path d="M 301.0 496.5 L 299.0 495.5 L 297.0 495.5 L 295.0 495.5 L 293.0 495.5 L 291.0 495.5 L 289.0 495.5 L 288.0 497.5 L 288.0 499.5 L 289.0 501.5 L 291.0 503.5 L 294.0 503.5 L 297.0 503.5 L 301.0 503.5 L 303.0 503.5 L 305.0 502.5 L 305.0 500.5 L 303.0 500.5 L 301.0 498.5 L 300.0 496.5 L 300.0 494.5 L 299.0 493.5"></path><path d="M 170.0 585.1 L 170.0 587.1 L 170.0 591.1 L 171.0 596.1 L 171.0 601.1 L 172.0 605.1 L 173.0 609.1 L 174.0 613.1 L 175.0 618.1 L 176.0 623.1 L 176.0 627.1 L 176.0 631.1 L 177.0 636.1 L 178.0 641.1 L 179.0 646.1 L 180.0 653.1 L 181.0 658.1 L 182.0 662.1 L 182.0 666.1 L 183.0 670.1 L 183.0 673.1 L 184.0 676.1 L 184.0 678.1 L 185.0 682.1 L 186.0 686.1 L 188.0 690.1 L 188.0 692.1 L 189.0 694.1 L 189.0 696.1 L 189.0 699.1 L 190.0 701.1 L 190.0 703.1 L 190.0 705.1 L 191.0 708.1 L 192.0 710.1 L 192.0 712.1 L 192.0 714.1 L 192.0 716.1 L 193.0 718.1 L 193.0 718.1"></path><path d="M 239.0 580.1 L 240.0 582.1 L 240.0 585.1 L 241.0 587.1 L 241.0 590.1 L 241.0 593.1 L 241.0 598.1 L 242.0 605.1 L 242.0 611.1 L 242.0 618.1 L 242.0 625.1 L 242.0 633.1 L 242.0 641.1 L 242.0 649.1 L 243.0 656.1 L 244.0 662.1 L 246.0 669.1 L 247.0 676.1 L 248.0 682.1 L 248.0 685.1 L 249.0 687.1 L 250.0 689.1 L 250.0 692.1 L 251.0 694.1 L 252.0 696.1 L 252.0 698.1 L 252.0 700.1 L 252.0 703.1 L 252.0 707.1 L 252.0 710.1 L 252.0 714.1 L 252.0 717.1 L 252.0 719.1 L 251.0 724.1 L 251.0 728.1 L 251.0 732.1 L 251.0 735.1 L 250.0 733.1 L 250.0 731.1"></path><path d="M 294.0 591.1 L 294.0 593.1 L 294.0 595.1 L 294.0 597.1 L 294.0 600.1 L 295.0 607.1 L 295.0 615.1 L 296.0 623.1 L 296.0 630.1 L 296.0 634.1 L 297.0 637.1 L 297.0 642.1 L 299.0 648.1 L 301.0 655.1 L 303.0 660.1 L 304.0 664.1 L 305.0 667.1 L 305.0 670.1 L 306.0 674.1 L 308.0 680.1 L 311.0 685.1 L 312.0 688.1 L 313.0 690.1 L 313.0 692.1 L 314.0 694.1 L 315.0 696.1 L 316.0 700.1 L 317.0 703.1 L 318.0 707.1 L 318.0 710.1 L 319.0 712.1 L 319.0 714.1 L 319.0 713.1"></path><path d="M 376.0 571.1 L 373.0 575.1 L 370.0 580.1 L 367.0 586.1 L 365.0 592.1 L 364.0 599.1 L 363.0 604.1 L 363.0 610.1 L 363.0 613.1 L 368.0 614.1 L 374.0 614.1 L 380.0 613.1 L 385.0 612.1 L 387.0 612.1 L 388.0 616.1 L 388.0 618.1 L 388.0 621.1 L 388.0 624.1 L 387.0 628.1 L 386.0 631.1 L 386.0 634.1 L 386.0 636.1 L 387.0 638.1 L 394.0 640.1 L 408.0 640.1 L 423.0 637.1 L 434.0 635.1 L 438.0 633.1 L 436.0 636.1 L 434.0 640.1 L 431.0 645.1 L 428.0 650.1 L 426.0 654.1 L 423.0 659.1 L 420.0 664.1 L 418.0 668.1 L 417.0 670.1 L 421.0 670.1 L 429.0 668.1 L 436.0 666.1 L 441.0 665.1 L 442.0 668.1 L 442.0 671.1 L 441.0 674.1 L 440.0 677.1 L 439.0 680.1 L 437.0 684.1 L 435.0 688.1 L 434.0 691.1 L 433.0 689.1 L 434.0 688.1"></path><path d="M 459.0 552.1 L 459.0 554.1 L 456.0 557.1 L 455.0 559.1 L 454.0 563.1 L 454.0 567.1 L 454.0 571.1 L 454.0 575.1 L 454.0 578.1 L 454.0 581.1 L 454.0 583.1 L 456.0 586.1 L 460.0 588.1 L 465.0 589.1 L 469.0 590.1 L 471.0 590.1 L 472.0 592.1 L 472.0 595.1 L 471.0 599.1 L 469.0 605.1 L 467.0 611.1 L 465.0 617.1 L 463.0 622.1 L 462.0 626.1 L 462.0 629.1 L 468.0 630.1 L 475.0 627.1 L 483.0 623.1 L 489.0 620.1 L 493.0 617.1 L 495.0 618.1 L 497.0 621.1 L 497.0 624.1 L 496.0 627.1 L 494.0 631.1 L 491.0 634.1 L 489.0 638.1 L 488.0 641.1 L 487.0 644.1 L 487.0 646.1 L 490.0 647.1 L 498.0 647.1 L 513.0 646.1 L 532.0 643.1 L 542.0 641.1 L 544.0 639.1 L 541.0 639.1 L 538.0 640.1 L 537.0 643.1 L 535.0 648.1 L 532.0 654.1 L 528.0 661.1 L 525.0 667.1 L 523.0 672.1 L 521.0 674.1 L 521.0 673.1"></path><path d="M 7.0 523.1 L 10.0 523.1 L 13.0 523.1 L 16.0 522.1 L 18.0 521.1 L 20.0 519.1 L 22.0 518.1 L 26.0 516.1 L 29.0 514.1 L 31.0 513.1 L 33.0 512.1 L 36.0 510.1 L 40.0 508.1 L 46.0 505.1 L 53.0 503.1 L 58.0 502.1 L 63.0 501.1 L 70.0 500.1 L 79.0 499.1 L 91.0 496.1 L 100.0 493.1 L 106.0 491.1 L 108.0 490.1 L 109.0 488.1 L 111.0 487.1 L 115.0 485.1 L 118.0 483.1 L 120.0 481.1 L 121.0 479.1 L 123.0 478.1 L 125.0 477.1 L 127.0 475.1 L 129.0 474.1 L 130.0 472.1 L 130.0 471.1"></path><path d="M 120.0 452.1 L 118.0 453.1 L 116.0 454.1 L 114.0 455.1 L 112.0 455.1 L 111.0 457.1 L 109.0 457.1 L 106.0 459.1 L 101.0 461.1 L 96.0 463.1 L 92.0 466.1 L 90.0 467.1 L 87.0 469.1 L 83.0 471.1 L 81.0 472.1 L 79.0 473.1 L 78.0 475.1 L 75.0 477.1 L 72.0 479.1 L 69.0 481.1 L 67.0 483.1 L 65.0 485.1 L 64.0 487.1 L 61.0 490.1 L 58.0 493.1 L 54.0 497.1 L 50.0 500.1 L 49.0 503.1 L 47.0 505.1 L 46.0 507.1 L 44.0 510.1 L 42.0 513.1 L 39.0 517.1 L 37.0 521.1 L 36.0 524.1 L 34.0 529.1 L 33.0 532.1 L 32.0 535.1 L 32.0 538.1 L 31.0 541.1 L 30.0 543.1 L 29.0 545.1 L 29.0 546.1"></path><path d="M 468.0 409.1 L 470.0 410.1 L 473.0 411.1 L 475.0 411.1 L 477.0 413.1 L 480.0 413.1 L 483.0 414.1 L 485.0 415.1 L 488.0 415.1 L 491.0 415.1 L 495.0 415.1 L 500.0 415.1 L 504.0 414.1 L 508.0 414.1 L 512.0 414.1 L 515.0 414.1 L 517.0 415.1 L 517.0 417.1 L 519.0 417.1 L 521.0 417.1 L 523.0 416.1 L 525.0 417.1 L 530.0 423.1 L 537.0 430.1 L 544.0 436.1 L 548.0 438.1 L 550.0 438.1 L 551.0 436.1 L 553.0 432.1 L 554.0 428.1 L 556.0 426.1 L 561.0 426.1 L 564.0 427.1 L 566.0 428.1 L 568.0 431.1 L 570.0 432.1 L 572.0 434.1 L 577.0 430.1 L 581.0 427.1 L 585.0 423.1 L 588.0 421.1 L 590.0 420.1 L 593.0 427.1 L 597.0 435.1 L 602.0 441.1 L 604.0 444.1 L 605.0 440.1 L 607.0 434.1 L 608.0 428.1 L 609.0 424.1 L 609.0 426.1 L 610.0 430.1 L 612.0 437.1 L 614.0 443.1 L 617.0 448.1 L 618.0 450.1 L 621.0 445.1 L 625.0 440.1 L 629.0 435.1 L 630.0 431.1 L 630.0 429.1 L 631.0 431.1"></path></g>
</svg>